<svg width="201" height="48" viewBox="0 0 201 48" fill="none" xmlns="http://www.w3.org/2000/svg">
<path d="M70.768 18.192C69.8827 18.192 69.0613 18.048 68.304 17.76C67.5573 17.472 66.9067 17.0667 66.352 16.544C65.808 16.0213 65.3813 15.408 65.072 14.704C64.7733 14 64.624 13.232 64.624 12.4C64.624 11.568 64.7733 10.8 65.072 10.096C65.3813 9.392 65.8133 8.77867 66.368 8.256C66.9227 7.73333 67.5733 7.328 68.32 7.04C69.0667 6.752 69.8773 6.608 70.752 6.608C71.6373 6.608 72.448 6.752 73.184 7.04C73.9307 7.328 74.576 7.73333 75.12 8.256C75.6747 8.77867 76.1067 9.392 76.416 10.096C76.7253 10.7893 76.88 11.5573 76.88 12.4C76.88 13.232 76.7253 14.0053 76.416 14.72C76.1067 15.424 75.6747 16.0373 75.12 16.56C74.576 17.072 73.9307 17.472 73.184 17.76C72.448 18.048 71.6427 18.192 70.768 18.192ZM70.752 15.984C71.2533 15.984 71.712 15.8987 72.128 15.728C72.5547 15.5573 72.928 15.312 73.248 14.992C73.568 14.672 73.8133 14.2933 73.984 13.856C74.1653 13.4187 74.256 12.9333 74.256 12.4C74.256 11.8667 74.1653 11.3813 73.984 10.944C73.8133 10.5067 73.568 10.128 73.248 9.808C72.9387 9.488 72.5707 9.24267 72.144 9.072C71.7173 8.90133 71.2533 8.816 70.752 8.816C70.2507 8.816 69.7867 8.90133 69.36 9.072C68.944 9.24267 68.576 9.488 68.256 9.808C67.936 10.128 67.6853 10.5067 67.504 10.944C67.3333 11.3813 67.248 11.8667 67.248 12.4C67.248 12.9227 67.3333 13.408 67.504 13.856C67.6853 14.2933 67.9307 14.672 68.24 14.992C68.56 15.312 68.9333 15.5573 69.36 15.728C69.7867 15.8987 70.2507 15.984 70.752 15.984ZM78.652 18V9.392H81.036V11.824L80.7 11.12C80.956 10.512 81.3667 10.0533 81.932 9.744C82.4973 9.424 83.1853 9.264 83.996 9.264V11.568C83.8893 11.5573 83.7933 11.552 83.708 11.552C83.6227 11.5413 83.532 11.536 83.436 11.536C82.7533 11.536 82.1987 11.7333 81.772 12.128C81.356 12.512 81.148 13.1147 81.148 13.936V18H78.652ZM85.4958 18V9.392H87.9918V18H85.4958ZM86.7438 8.192C86.2851 8.192 85.9118 8.05867 85.6238 7.792C85.3358 7.52533 85.1918 7.19467 85.1918 6.8C85.1918 6.40533 85.3358 6.07467 85.6238 5.808C85.9118 5.54133 86.2851 5.408 86.7438 5.408C87.2024 5.408 87.5758 5.536 87.8638 5.792C88.1518 6.03733 88.2958 6.35733 88.2958 6.752C88.2958 7.168 88.1518 7.51467 87.8638 7.792C87.5864 8.05867 87.2131 8.192 86.7438 8.192ZM94.3563 21.232C93.5456 21.232 92.7616 21.1307 92.0043 20.928C91.2576 20.736 90.6336 20.4427 90.1323 20.048L91.1243 18.256C91.4869 18.5547 91.9456 18.7893 92.5003 18.96C93.0656 19.1413 93.6203 19.232 94.1643 19.232C95.0496 19.232 95.6896 19.0347 96.0843 18.64C96.4896 18.2453 96.6923 17.6587 96.6923 16.88V15.584L96.8523 13.424L96.8203 11.248V9.392H99.1883V16.56C99.1883 18.16 98.7723 19.3387 97.9403 20.096C97.1083 20.8533 95.9136 21.232 94.3563 21.232ZM93.9723 17.584C93.1723 17.584 92.4469 17.4133 91.7963 17.072C91.1563 16.72 90.6389 16.2347 90.2443 15.616C89.8603 14.9867 89.6683 14.256 89.6683 13.424C89.6683 12.5813 89.8603 11.8507 90.2443 11.232C90.6389 10.6027 91.1563 10.1173 91.7963 9.776C92.4469 9.43467 93.1723 9.264 93.9723 9.264C94.6976 9.264 95.3376 9.41333 95.8923 9.712C96.4469 10 96.8789 10.4533 97.1883 11.072C97.4976 11.68 97.6523 12.464 97.6523 13.424C97.6523 14.3733 97.4976 15.1573 97.1883 15.776C96.8789 16.384 96.4469 16.8373 95.8923 17.136C95.3376 17.4347 94.6976 17.584 93.9723 17.584ZM94.4683 15.536C94.9056 15.536 95.2949 15.4507 95.6363 15.28C95.9776 15.0987 96.2443 14.848 96.4363 14.528C96.6283 14.208 96.7243 13.84 96.7243 13.424C96.7243 12.9973 96.6283 12.6293 96.4363 12.32C96.2443 12 95.9776 11.7547 95.6363 11.584C95.2949 11.4027 94.9056 11.312 94.4683 11.312C94.0309 11.312 93.6416 11.4027 93.3003 11.584C92.9589 11.7547 92.6869 12 92.4843 12.32C92.2923 12.6293 92.1963 12.9973 92.1963 13.424C92.1963 13.84 92.2923 14.208 92.4843 14.528C92.6869 14.848 92.9589 15.0987 93.3003 15.28C93.6416 15.4507 94.0309 15.536 94.4683 15.536ZM101.511 18V9.392H104.007V18H101.511ZM102.759 8.192C102.301 8.192 101.927 8.05867 101.639 7.792C101.351 7.52533 101.207 7.19467 101.207 6.8C101.207 6.40533 101.351 6.07467 101.639 5.808C101.927 5.54133 102.301 5.408 102.759 5.408C103.218 5.408 103.591 5.536 103.879 5.792C104.167 6.03733 104.311 6.35733 104.311 6.752C104.311 7.168 104.167 7.51467 103.879 7.792C103.602 8.05867 103.229 8.192 102.759 8.192ZM111.556 9.264C112.239 9.264 112.847 9.40267 113.38 9.68C113.924 9.94667 114.351 10.3627 114.66 10.928C114.969 11.4827 115.124 12.1973 115.124 13.072V18H112.628V13.456C112.628 12.7627 112.473 12.2507 112.164 11.92C111.865 11.5893 111.439 11.424 110.884 11.424C110.489 11.424 110.132 11.5093 109.812 11.68C109.503 11.84 109.257 12.0907 109.076 12.432C108.905 12.7733 108.82 13.2107 108.82 13.744V18H106.324V9.392H108.708V11.776L108.26 11.056C108.569 10.48 109.012 10.0373 109.588 9.728C110.164 9.41867 110.82 9.264 111.556 9.264ZM122.666 18V16.32L122.506 15.952V12.944C122.506 12.4107 122.341 11.9947 122.01 11.696C121.69 11.3973 121.194 11.248 120.522 11.248C120.064 11.248 119.61 11.3227 119.162 11.472C118.725 11.6107 118.352 11.8027 118.042 12.048L117.146 10.304C117.616 9.97333 118.181 9.71733 118.842 9.536C119.504 9.35467 120.176 9.264 120.858 9.264C122.17 9.264 123.189 9.57333 123.914 10.192C124.64 10.8107 125.002 11.776 125.002 13.088V18H122.666ZM120.042 18.128C119.37 18.128 118.794 18.016 118.314 17.792C117.834 17.5573 117.466 17.2427 117.21 16.848C116.954 16.4533 116.826 16.0107 116.826 15.52C116.826 15.008 116.949 14.56 117.194 14.176C117.45 13.792 117.85 13.4933 118.394 13.28C118.938 13.056 119.648 12.944 120.522 12.944H122.81V14.4H120.794C120.208 14.4 119.802 14.496 119.578 14.688C119.365 14.88 119.258 15.12 119.258 15.408C119.258 15.728 119.381 15.984 119.626 16.176C119.882 16.3573 120.229 16.448 120.666 16.448C121.082 16.448 121.456 16.352 121.786 16.16C122.117 15.9573 122.357 15.664 122.506 15.28L122.89 16.432C122.709 16.9867 122.378 17.408 121.898 17.696C121.418 17.984 120.8 18.128 120.042 18.128ZM127.261 18V6.128H129.757V18H127.261ZM65.328 42V30.8H70.176C71.1787 30.8 72.0427 30.9653 72.768 31.296C73.4933 31.616 74.0533 32.08 74.448 32.688C74.8427 33.296 75.04 34.0213 75.04 34.864C75.04 35.696 74.8427 36.416 74.448 37.024C74.0533 37.632 73.4933 38.1013 72.768 38.432C72.0427 38.752 71.1787 38.912 70.176 38.912H66.768L67.92 37.744V42H65.328ZM67.92 38.032L66.768 36.8H70.032C70.832 36.8 71.4293 36.6293 71.824 36.288C72.2187 35.9467 72.416 35.472 72.416 34.864C72.416 34.2453 72.2187 33.7653 71.824 33.424C71.4293 33.0827 70.832 32.912 70.032 32.912H66.768L67.92 31.68V38.032ZM76.8708 42V30.128H79.3668V42H76.8708ZM86.9633 42V40.32L86.8033 39.952V36.944C86.8033 36.4107 86.6379 35.9947 86.3073 35.696C85.9873 35.3973 85.4913 35.248 84.8193 35.248C84.3606 35.248 83.9073 35.3227 83.4593 35.472C83.0219 35.6107 82.6486 35.8027 82.3393 36.048L81.4433 34.304C81.9126 33.9733 82.4779 33.7173 83.1393 33.536C83.8006 33.3547 84.4726 33.264 85.1553 33.264C86.4673 33.264 87.4859 33.5733 88.2113 34.192C88.9366 34.8107 89.2993 35.776 89.2993 37.088V42H86.9633ZM84.3393 42.128C83.6673 42.128 83.0913 42.016 82.6113 41.792C82.1313 41.5573 81.7633 41.2427 81.5073 40.848C81.2513 40.4533 81.1233 40.0107 81.1233 39.52C81.1233 39.008 81.2459 38.56 81.4913 38.176C81.7473 37.792 82.1473 37.4933 82.6913 37.28C83.2353 37.056 83.9446 36.944 84.8193 36.944H87.1073V38.4H85.0913C84.5046 38.4 84.0993 38.496 83.8753 38.688C83.6619 38.88 83.5553 39.12 83.5553 39.408C83.5553 39.728 83.6779 39.984 83.9233 40.176C84.1793 40.3573 84.5259 40.448 84.9633 40.448C85.3793 40.448 85.7526 40.352 86.0833 40.16C86.4139 39.9573 86.6539 39.664 86.8033 39.28L87.1873 40.432C87.0059 40.9867 86.6753 41.408 86.1953 41.696C85.7153 41.984 85.0966 42.128 84.3393 42.128ZM96.7903 33.264C97.4729 33.264 98.0809 33.4027 98.6143 33.68C99.1583 33.9467 99.5849 34.3627 99.8943 34.928C100.204 35.4827 100.358 36.1973 100.358 37.072V42H97.8623V37.456C97.8623 36.7627 97.7076 36.2507 97.3983 35.92C97.0996 35.5893 96.6729 35.424 96.1183 35.424C95.7236 35.424 95.3663 35.5093 95.0463 35.68C94.7369 35.84 94.4916 36.0907 94.3103 36.432C94.1396 36.7733 94.0543 37.2107 94.0543 37.744V42H91.5583V33.392H93.9423V35.776L93.4943 35.056C93.8036 34.48 94.2463 34.0373 94.8223 33.728C95.3983 33.4187 96.0543 33.264 96.7903 33.264ZM106.141 42.128C105.127 42.128 104.338 41.872 103.773 41.36C103.207 40.8373 102.925 40.064 102.925 39.04V31.488H105.421V39.008C105.421 39.3707 105.517 39.6533 105.709 39.856C105.901 40.048 106.162 40.144 106.493 40.144C106.887 40.144 107.223 40.0373 107.501 39.824L108.173 41.584C107.917 41.7653 107.607 41.904 107.245 42C106.893 42.0853 106.525 42.128 106.141 42.128ZM101.597 35.504V33.584H107.565V35.504H101.597ZM112.47 42.128C111.734 42.128 111.025 42.0427 110.342 41.872C109.67 41.6907 109.137 41.4667 108.742 41.2L109.574 39.408C109.969 39.6533 110.433 39.856 110.966 40.016C111.51 40.1653 112.043 40.24 112.566 40.24C113.142 40.24 113.547 40.1707 113.782 40.032C114.027 39.8933 114.15 39.7013 114.15 39.456C114.15 39.2533 114.054 39.104 113.862 39.008C113.681 38.9013 113.435 38.8213 113.126 38.768C112.817 38.7147 112.475 38.6613 112.102 38.608C111.739 38.5547 111.371 38.4853 110.998 38.4C110.625 38.304 110.283 38.1653 109.974 37.984C109.665 37.8027 109.414 37.5573 109.222 37.248C109.041 36.9387 108.95 36.5387 108.95 36.048C108.95 35.504 109.105 35.024 109.414 34.608C109.734 34.192 110.193 33.8667 110.79 33.632C111.387 33.3867 112.102 33.264 112.934 33.264C113.521 33.264 114.118 33.328 114.726 33.456C115.334 33.584 115.841 33.7707 116.246 34.016L115.414 35.792C114.998 35.5467 114.577 35.3813 114.15 35.296C113.734 35.2 113.329 35.152 112.934 35.152C112.379 35.152 111.974 35.2267 111.718 35.376C111.462 35.5253 111.334 35.7173 111.334 35.952C111.334 36.1653 111.425 36.3253 111.606 36.432C111.798 36.5387 112.049 36.624 112.358 36.688C112.667 36.752 113.003 36.8107 113.366 36.864C113.739 36.9067 114.113 36.976 114.486 37.072C114.859 37.168 115.195 37.3067 115.494 37.488C115.803 37.6587 116.054 37.8987 116.246 38.208C116.438 38.5067 116.534 38.9013 116.534 39.392C116.534 39.9253 116.374 40.4 116.054 40.816C115.734 41.2213 115.27 41.5413 114.662 41.776C114.065 42.0107 113.334 42.128 112.47 42.128Z" fill="#156963"/>
<g clip-path="url(#clip0_0_43)">
<path d="M19.2976 6.88197C15.1042 2.69072 6.89824 2.20471 1.0898 2.20471C0.488251 2.20471 0 2.69286 0 3.29441C0 9.10285 0.483858 17.3088 4.67726 21.5023C6.44708 23.2721 9.16061 24.0633 11.8501 24.0633C14.7729 24.0633 17.6695 23.1283 19.2976 21.5002C22.4209 18.3769 22.9942 10.5763 19.2976 6.88197ZM17.7567 19.9614C15.4246 22.2912 8.94922 22.6901 6.22047 19.9614C2.83562 16.5766 2.24928 9.70011 2.18604 4.39076C7.4954 4.454 14.3719 5.04022 17.7566 8.42508C20.4855 11.1538 20.0866 17.6315 17.7567 19.9614Z" fill="#156963"/>
<path d="M46.9104 6.51575C41.102 6.51575 32.896 6.9996 28.7025 11.193C25.0061 14.8873 25.5792 22.6879 28.7025 25.8112C30.3306 27.4372 33.2251 28.3722 36.1479 28.3722C38.8374 28.3722 41.5488 27.5832 43.3229 25.8135C47.5141 21.6201 48.0001 13.4141 48.0001 7.60555C48.0002 7.004 47.512 6.51575 46.9104 6.51575ZM41.7776 24.2702C39.0489 26.999 32.5712 26.6001 30.2414 24.2702C27.9115 21.9403 27.5126 15.4627 30.2414 12.734C33.6262 9.34911 40.5026 8.76289 45.812 8.69965C45.7488 14.0111 45.1625 20.8876 41.7776 24.2702Z" fill="#156963"/>
<path d="M39.0397 15.9489C38.7825 15.4018 38.0458 15.2144 37.5031 15.4671C29.1446 19.3969 25.0383 26.2493 23.1726 33.2936C20.8644 18.3157 14.1885 13.7496 11.3573 11.8121C11.0042 11.5701 10.7296 11.3936 10.5771 11.2432C10.152 10.8182 9.46109 10.8182 9.03608 11.2432C8.61107 11.6682 8.61107 12.3592 9.03608 12.7842C9.25186 12.9978 9.62456 13.2659 10.128 13.6102C13.3189 15.7919 21.7951 21.5917 21.7951 44.7057C21.7951 45.3073 22.2833 45.7955 22.8849 45.7955C23.4864 45.7955 23.9747 45.3073 23.9747 44.708C23.9747 35.3687 26.4834 23.0564 38.4316 17.4419C38.4316 17.4398 38.6081 17.3569 38.6081 17.3569C39.1508 17.0997 39.2968 16.4937 39.0397 15.9489Z" fill="#156963"/>
</g>
<defs>
<clipPath id="clip0_0_43">
<rect width="48" height="48" fill="white"/>
</clipPath>
</defs>
</svg>
